<?xml version="1.0" encoding="utf-8"?>
<!-- Generator: Adobe Illustrator 16.0.0, SVG Export Plug-In . SVG Version: 6.00 Build 0)  -->
<!DOCTYPE svg PUBLIC "-//W3C//DTD SVG 1.1//EN" "http://www.w3.org/Graphics/SVG/1.1/DTD/svg11.dtd">
<svg version="1.1" id="Layer_1" xmlns="http://www.w3.org/2000/svg" xmlns:xlink="http://www.w3.org/1999/xlink" x="0px" y="0px"
	 width="131.613px" height="211.955px" viewBox="0 0 131.613 211.955" enable-background="new 0 0 131.613 211.955"
	 xml:space="preserve">
<g>
	<path id="rect2085" fill="none" stroke="#FFFFFF" stroke-width="4" stroke-linecap="round" stroke-linejoin="round" d="
		M17.268,1.995h97.078c8.459,0,15.269,6.81,15.269,15.268v177.42c0,8.459-6.81,15.268-15.269,15.268H17.268
		C8.809,209.949,2,203.142,2,194.683V17.263C2,8.805,8.809,1.995,17.268,1.995z"/>
	<g>
		<polygon fill="#FFFFFF" points="24.791,21.02 14.269,37.99 3.747,21.02 14.269,4.049 		"/>
		<polygon fill="#FFFFFF" points="45.458,21.02 34.936,37.99 24.413,21.02 34.936,4.049 		"/>
		<polygon fill="#FFFFFF" points="66.124,21.02 55.603,37.99 45.08,21.02 55.603,4.049 		"/>
		<polygon fill="#FFFFFF" points="86.791,21.02 76.27,37.99 65.747,21.02 76.27,4.049 		"/>
		<polygon fill="#FFFFFF" points="107.458,21.02 96.936,37.99 86.413,21.02 96.936,4.049 		"/>
		<polygon fill="#FFFFFF" points="128.124,21.02 117.604,37.99 107.08,21.02 117.604,4.049 		"/>
		<polygon fill="#FFFFFF" points="24.791,55.02 14.269,71.99 3.747,55.02 14.269,38.049 		"/>
		<polygon fill="#FFFFFF" points="45.458,55.02 34.936,71.99 24.413,55.02 34.936,38.049 		"/>
		<polygon fill="#FFFFFF" points="66.124,55.02 55.603,71.99 45.08,55.02 55.603,38.049 		"/>
		<polygon fill="#FFFFFF" points="86.791,55.02 76.27,71.99 65.747,55.02 76.27,38.049 		"/>
		<polygon fill="#FFFFFF" points="107.458,55.02 96.936,71.99 86.413,55.02 96.936,38.049 		"/>
		<polygon fill="#FFFFFF" points="128.124,55.02 117.604,71.99 107.08,55.02 117.604,38.049 		"/>
		<polygon fill="#FFFFFF" points="24.791,89.02 14.269,105.99 3.747,89.02 14.269,72.049 		"/>
		<polygon fill="#FFFFFF" points="45.458,89.02 34.936,105.99 24.413,89.02 34.936,72.049 		"/>
		<polygon fill="#FFFFFF" points="66.124,89.02 55.603,105.99 45.08,89.02 55.603,72.049 		"/>
		<polygon fill="#FFFFFF" points="86.791,89.02 76.27,105.99 65.747,89.02 76.27,72.049 		"/>
		<polygon fill="#FFFFFF" points="107.458,89.02 96.936,105.99 86.413,89.02 96.936,72.049 		"/>
		<polygon fill="#FFFFFF" points="128.124,89.02 117.604,105.99 107.08,89.02 117.604,72.049 		"/>
		<polygon fill="#FFFFFF" points="24.791,123.021 14.269,139.99 3.747,123.021 14.269,106.049 		"/>
		<polygon fill="#FFFFFF" points="45.458,123.021 34.936,139.99 24.413,123.021 34.936,106.049 		"/>
		<polygon fill="#FFFFFF" points="66.124,123.021 55.603,139.99 45.08,123.021 55.603,106.049 		"/>
		<polygon fill="#FFFFFF" points="86.791,123.021 76.27,139.99 65.747,123.021 76.27,106.049 		"/>
		<polygon fill="#FFFFFF" points="107.458,123.021 96.936,139.99 86.413,123.021 96.936,106.049 		"/>
		<polygon fill="#FFFFFF" points="128.124,123.021 117.604,139.99 107.08,123.021 117.604,106.049 		"/>
		<polygon fill="#FFFFFF" points="24.791,157.021 14.269,173.99 3.747,157.021 14.269,140.049 		"/>
		<polygon fill="#FFFFFF" points="45.458,157.021 34.936,173.99 24.413,157.021 34.936,140.049 		"/>
		<polygon fill="#FFFFFF" points="66.124,157.021 55.603,173.99 45.08,157.021 55.603,140.049 		"/>
		<polygon fill="#FFFFFF" points="86.791,157.021 76.27,173.99 65.747,157.021 76.27,140.049 		"/>
		<polygon fill="#FFFFFF" points="107.458,157.021 96.936,173.99 86.413,157.021 96.936,140.049 		"/>
		<polygon fill="#FFFFFF" points="128.124,157.021 117.604,173.99 107.08,157.021 117.604,140.049 		"/>
		<polygon fill="#FFFFFF" points="24.791,191.021 14.269,207.99 3.747,191.021 14.269,174.049 		"/>
		<polygon fill="#FFFFFF" points="45.458,191.021 34.936,207.99 24.413,191.021 34.936,174.049 		"/>
		<polygon fill="#FFFFFF" points="66.124,191.021 55.603,207.99 45.08,191.021 55.603,174.049 		"/>
		<polygon fill="#FFFFFF" points="86.791,191.021 76.27,207.99 65.747,191.021 76.27,174.049 		"/>
		<polygon fill="#FFFFFF" points="107.458,191.021 96.936,207.99 86.413,191.021 96.936,174.049 		"/>
		<polygon fill="#FFFFFF" points="128.124,191.021 117.604,207.99 107.08,191.021 117.604,174.049 		"/>
	</g>
</g>
</svg>
