<?xml version="1.0" encoding="utf-8"?>
<!-- Generator: Adobe Illustrator 16.0.0, SVG Export Plug-In . SVG Version: 6.00 Build 0)  -->
<!DOCTYPE svg PUBLIC "-//W3C//DTD SVG 1.1//EN" "http://www.w3.org/Graphics/SVG/1.1/DTD/svg11.dtd">
<svg version="1.1" id="Layer_1" xmlns="http://www.w3.org/2000/svg" xmlns:xlink="http://www.w3.org/1999/xlink" x="0px" y="0px"
	 width="131.613px" height="211.954px" viewBox="0 0 131.613 211.954" enable-background="new 0 0 131.613 211.954"
	 xml:space="preserve">
<g id="g1937" transform="translate(-535,1.921275)">
	<path id="rect2091" fill="none" stroke="#FFFFFF" stroke-width="4" stroke-linecap="round" stroke-linejoin="round" d="
		M552.268,0.079h97.078c8.459,0,15.269,6.811,15.269,15.269v177.419c0,8.459-6.81,15.268-15.269,15.268h-97.078
		c-8.458,0-15.268-6.809-15.268-15.268V15.346C537,6.888,543.809,0.079,552.268,0.079z"/>
	<path id="path2093" fill="none" stroke="#FFFFFF" stroke-width="10" stroke-linecap="round" stroke-linejoin="round" d="
		M648.965,104.056c0,26.837-21.574,48.619-48.158,48.619c-26.584,0-48.159-21.781-48.159-48.619
		c0-26.838,21.575-48.619,48.159-48.619C627.391,55.437,648.965,77.218,648.965,104.056z"/>
</g>
</svg>
