<?xml version="1.0" encoding="utf-8"?>
<!-- Generator: Adobe Illustrator 16.0.0, SVG Export Plug-In . SVG Version: 6.00 Build 0)  -->
<!DOCTYPE svg PUBLIC "-//W3C//DTD SVG 1.1//EN" "http://www.w3.org/Graphics/SVG/1.1/DTD/svg11.dtd">
<svg version="1.1" id="Layer_1" xmlns="http://www.w3.org/2000/svg" xmlns:xlink="http://www.w3.org/1999/xlink" x="0px" y="0px"
	 width="131.613px" height="211.955px" viewBox="0 0 131.613 211.955" enable-background="new 0 0 131.613 211.955"
	 xml:space="preserve">
<g>
	<path id="rect2081" fill="none" stroke="#FFFFFF" stroke-width="4" stroke-linecap="round" stroke-linejoin="round" d="M17.268,2
		h97.078c8.457,0,15.269,6.811,15.269,15.269v177.42c0,8.459-6.812,15.268-15.269,15.268H17.268C8.81,209.956,2,203.147,2,194.688
		V17.267C2,8.809,8.81,2,17.268,2z"/>
	<g id="g6261">
		<path id="path2161" fill="#FFFFFF" d="M64.184,144.162c2.518-5.123,3.291-11.334,0.533-16.516c-2.069-4.179-4.85-7.8-7.415-11.673
			c-4.07-5.266-7.264-11.835-5.811-18.525c0.765-4.845,3.718-9.023,6.023-13.257c2.259-3.721,4.483-7.759,5.547-12.05
			c1.134-5.886-0.645-14.509-4.693-19.127l12.095,0.004c2.861,4.495,6.143,9.345,5.594,14.857
			c0.465,7.209-4.205,13.332-7.354,19.506c-3.749,5.876-6.527,13.343-3.435,20.033c2.882,6.344,7.646,11.688,11.052,17.775
			c2.863,4.525,3.094,10.16,1.963,15.213c-2.125,5.6-5.189,12.688-7.711,18.121l-13.115-0.018
			C59.111,153.509,61.896,148.916,64.184,144.162z"/>
		<path id="path2248" fill="#FFFFFF" d="M43.926,144.162c2.519-5.123,3.291-11.334,0.533-16.516c-2.069-4.179-4.85-7.8-7.414-11.673
			c-4.071-5.266-7.264-11.835-5.811-18.525c0.765-4.845,3.717-9.023,6.022-13.257c2.259-3.721,4.484-7.759,5.547-12.05
			c1.134-5.886-0.644-14.509-4.693-19.127l12.096,0.004c2.861,4.495,6.142,9.345,5.593,14.857
			c0.466,7.209-4.203,13.332-7.353,19.506c-3.75,5.876-6.528,13.343-3.436,20.033c2.882,6.344,7.646,11.688,11.053,17.775
			c2.863,4.525,3.095,10.16,1.963,15.213c-2.125,5.6-5.19,12.688-7.711,18.121l-13.116-0.018
			C38.854,153.509,41.639,148.916,43.926,144.162z"/>
		<path id="path2250" fill="#FFFFFF" d="M84.441,144.162c2.518-5.123,3.291-11.334,0.533-16.516c-2.07-4.179-4.851-7.8-7.416-11.673
			c-4.07-5.266-7.265-11.835-5.812-18.525c0.767-4.845,3.719-9.023,6.022-13.257c2.258-3.721,4.484-7.759,5.547-12.05
			c1.134-5.886-0.645-14.509-4.692-19.127l12.096,0.004c2.861,4.495,6.144,9.345,5.595,14.857
			c0.465,7.209-4.205,13.332-7.354,19.506c-3.75,5.876-6.526,13.343-3.437,20.033c2.884,6.344,7.646,11.688,11.054,17.775
			c2.862,4.525,3.094,10.16,1.963,15.213c-2.125,5.6-5.19,12.688-7.711,18.121l-13.117-0.018
			C79.369,153.509,82.154,148.916,84.441,144.162z"/>
	</g>
</g>
</svg>
